<?xml version="1.0" encoding="UTF-8"?>
<svg width="3471px" height="728px" viewBox="0 0 3471 728" version="1.1" xmlns="http://www.w3.org/2000/svg" xmlns:xlink="http://www.w3.org/1999/xlink">
    <!-- Generator: Sketch 41.2 (35397) - http://www.bohemiancoding.com/sketch -->
    <title>Logo - White Copy 2</title>
    <desc>Created with Sketch.</desc>
    <defs></defs>
    <g id="Page-1" stroke="none" stroke-width="1" fill="none" fill-rule="evenodd">
        <g id="Logo---White-Copy-2">
            <g id="Icon" transform="translate(0.000000, 5.000000)" fill="#0B3B55">
                <rect id="Rectangle-1" x="0" y="0" width="514.055112" height="119.880208"></rect>
                <rect id="Rectangle-3" x="569.492428" y="0" width="418.299748" height="119.880208"></rect>
                <rect id="Rectangle-3" x="569.492428" y="599.401042" width="418.299748" height="119.880208"></rect>
                <polygon id="Rectangle-2" points="513.93805 117.482604 513.93805 719.28125 373.406036 719.28125 373.406036 117.482604"></polygon>
            </g>
            <path d="M1259.81105,296.308536 L1218.8715,296.308536 L1218.8715,42.8545404 L1125,42.8545404 L1125,7.34649263 L1353.68255,7.34649263 L1353.68255,42.8545404 L1259.81105,42.8545404 L1259.81105,296.308536 Z M1369.42016,296.308536 L1323.93177,296.308536 L1450.88574,7.34649263 L1488.10351,7.34649263 L1613.81689,296.308536 L1567.50143,296.308536 L1537.72721,225.292441 L1398.78085,225.292441 L1369.42016,296.308536 Z M1413.25443,189.784393 L1522.8401,189.784393 L1468.25403,54.2824178 L1413.25443,189.784393 Z M1881.86713,251.413303 C1870.28821,266.922643 1855.26341,279.506787 1836.79227,289.166113 C1818.32114,298.825438 1796.12854,303.655029 1770.21381,303.655029 C1747.88303,303.655029 1727.27562,299.913797 1708.39095,292.431221 C1689.50628,284.948644 1673.2409,274.473195 1659.59431,261.004558 C1645.94773,247.53592 1635.26495,231.482634 1627.54567,212.844217 C1619.82639,194.2058 1615.96681,173.731058 1615.96681,151.419376 C1615.96681,128.8356 1619.89531,108.224813 1627.75244,89.5863963 C1635.60956,70.9479792 1646.4991,55.0307376 1660.42137,41.8341942 C1674.34365,28.6376507 1690.8158,18.3662683 1709.83831,11.0197389 C1728.86082,3.67320958 1749.53716,0 1771.86793,0 C1781.79272,0 1791.85521,0.952313596 1802.05568,2.85696936 C1812.25616,4.76162512 1822.04296,7.6185659 1831.41637,11.4278774 C1840.78979,15.2371889 1849.336,19.9307345 1857.05528,25.508655 C1864.77457,31.0865754 1871.39099,37.5487034 1876.90476,44.8952327 L1844.64936,69.3835415 C1837.48146,59.588169 1827.35005,51.4935035 1814.25484,45.099302 C1801.15964,38.7051005 1787.03081,35.5080477 1771.86793,35.5080477 C1754.77524,35.5080477 1739.40583,38.5690557 1725.75925,44.6911635 C1712.11266,50.8132713 1700.46499,59.1800265 1690.81589,69.79168 C1681.16679,80.4033335 1673.72331,92.7153879 1668.48523,106.728212 C1663.24714,120.741037 1660.62814,135.637942 1660.62814,151.419376 C1660.62814,167.744997 1663.17822,182.982014 1668.27846,197.130886 C1673.3787,211.279757 1680.68434,223.591811 1690.19559,234.067418 C1699.70685,244.543025 1711.2856,252.773735 1724.93218,258.759796 C1738.57877,264.745857 1753.81034,267.738843 1770.62734,267.738843 C1787.16866,267.738843 1802.19346,264.473767 1815.7022,257.943519 C1829.21094,251.413271 1840.37616,241.890135 1849.1982,229.373826 L1881.86713,251.413303 Z M2035.4409,296.308536 L1994.50134,296.308536 L1994.50134,42.8545404 L1900.62984,42.8545404 L1900.62984,7.34649263 L2129.31239,7.34649263 L2129.31239,42.8545404 L2035.4409,42.8545404 L2035.4409,296.308536 Z M2210.15179,296.308536 L2169.21224,296.308536 L2169.21224,7.34649263 L2210.15179,7.34649263 L2210.15179,296.308536 Z M2511.73342,251.413303 C2500.1545,266.922643 2485.12969,279.506787 2466.65856,289.166113 C2448.18742,298.825438 2425.99482,303.655029 2400.08009,303.655029 C2377.74932,303.655029 2357.1419,299.913797 2338.25723,292.431221 C2319.37257,284.948644 2303.10718,274.473195 2289.4606,261.004558 C2275.81401,247.53592 2265.13124,231.482634 2257.41196,212.844217 C2249.69268,194.2058 2245.83309,173.731058 2245.83309,151.419376 C2245.83309,128.8356 2249.7616,108.224813 2257.61872,89.5863963 C2265.47585,70.9479792 2276.36538,55.0307376 2290.28766,41.8341942 C2304.20993,28.6376507 2320.68208,18.3662683 2339.70459,11.0197389 C2358.72711,3.67320958 2379.40344,0 2401.73422,0 C2411.65901,0 2421.72149,0.952313596 2431.92197,2.85696936 C2442.12245,4.76162512 2451.90924,7.6185659 2461.28266,11.4278774 C2470.65607,15.2371889 2479.20229,19.9307345 2486.92157,25.508655 C2494.64085,31.0865754 2501.25728,37.5487034 2506.77105,44.8952327 L2474.51564,69.3835415 C2467.34774,59.588169 2457.21634,51.4935035 2444.12113,45.099302 C2431.02592,38.7051005 2416.89709,35.5080477 2401.73422,35.5080477 C2384.64152,35.5080477 2369.27212,38.5690557 2355.62553,44.6911635 C2341.97894,50.8132713 2330.33128,59.1800265 2320.68217,69.79168 C2311.03307,80.4033335 2303.58959,92.7153879 2298.35151,106.728212 C2293.11343,120.741037 2290.49442,135.637942 2290.49442,151.419376 C2290.49442,167.744997 2293.0445,182.982014 2298.14474,197.130886 C2303.24498,211.279757 2310.55062,223.591811 2320.06188,234.067418 C2329.57313,244.543025 2341.15188,252.773735 2354.79847,258.759796 C2368.44505,264.745857 2383.67662,267.738843 2400.49362,267.738843 C2417.03494,267.738843 2432.05974,264.473767 2445.56849,257.943519 C2459.07723,251.413271 2470.24245,241.890135 2479.06448,229.373826 L2511.73342,251.413303 Z M2555.21298,296.308536 L2509.72459,296.308536 L2636.67856,7.34649263 L2673.89633,7.34649263 L2799.6097,296.308536 L2753.29425,296.308536 L2723.52003,225.292441 L2584.57367,225.292441 L2555.21298,296.308536 Z M2599.04725,189.784393 L2708.63292,189.784393 L2654.04685,54.2824178 L2599.04725,189.784393 Z M2878.18056,260.39235 L3008.85631,260.39235 L3008.85631,296.308536 L2837.24101,296.308536 L2837.24101,7.34649263 L2878.18056,7.34649263 L2878.18056,260.39235 Z M3089.49482,260.39235 L3220.17056,260.39235 L3220.17056,296.308536 L3048.55527,296.308536 L3048.55527,7.34649263 L3089.49482,7.34649263 L3089.49482,260.39235 Z M3343.1657,296.308536 L3301.81261,296.308536 L3301.81261,171.418161 L3192.22694,7.34649263 L3242.67771,7.34649263 L3323.72975,137.950806 L3405.19532,7.34649263 L3452.75137,7.34649263 L3343.1657,171.418161 L3343.1657,296.308536 Z" id="TACTICALLY" fill="#333333"></path>
            <path d="M1314.77441,385 C1333.75563,385 1352.3378,387.153299 1370.52148,391.459961 C1388.70517,395.766623 1408.32411,403.103789 1429.37891,413.47168 L1429.37891,474.243164 C1408.80263,462.43972 1389.78183,453.906276 1372.31592,448.642578 C1354.85001,443.37888 1336.62672,440.74707 1317.64551,440.74707 C1293.87911,440.74707 1272.42588,445.651806 1253.28516,455.461426 C1234.14444,465.271045 1219.27072,479.107984 1208.66357,496.972656 C1198.05642,514.837329 1192.75293,534.695529 1192.75293,556.547852 C1192.75293,578.878692 1198.01655,598.896396 1208.54395,616.601562 C1219.07134,634.306729 1233.90518,647.984164 1253.0459,657.634277 C1272.18662,667.284391 1293.71961,672.109375 1317.64551,672.109375 C1335.9887,672.109375 1353.49422,669.477565 1370.1626,664.213867 C1386.83098,658.950169 1407.84558,649.459704 1433.20703,635.742188 L1433.20703,696.513672 C1411.51421,707.838598 1391.57626,715.893531 1373.39258,720.678711 C1355.20889,725.463891 1333.99491,727.856445 1309.75,727.856445 C1274.49917,727.856445 1242.99721,720.838286 1215.24316,706.801758 C1187.48912,692.765229 1165.677,672.548146 1149.80615,646.149902 C1133.9353,619.751658 1126,590.841628 1126,559.418945 C1126,525.763178 1134.17456,495.537243 1150.52393,468.740234 C1166.87329,441.943225 1189.3633,421.287507 1217.99463,406.772461 C1246.62596,392.257414 1278.88556,385 1314.77441,385 L1314.77441,385 Z M1618.84879,389.306641 C1650.27148,389.306641 1675.87181,397.999588 1695.65055,415.385742 C1715.4293,432.771897 1725.31852,455.42141 1725.31852,483.334961 C1725.31852,502.316176 1720.41378,518.864676 1710.60416,532.980957 C1700.79455,547.097239 1686.23984,558.222616 1666.93961,566.357422 C1677.62652,572.099638 1687.11698,579.915315 1695.41129,589.804688 C1703.70561,599.69406 1713.99359,616.362187 1726.27555,639.80957 C1746.69232,680.324096 1761.84516,708.237228 1771.73454,723.549805 L1699.71793,723.549805 C1694.77325,716.212528 1688.0741,704.489013 1679.62028,688.378906 C1661.11758,652.809067 1647.55977,628.843649 1638.94645,616.481934 C1630.33313,604.120218 1622.03894,595.347519 1614.06364,590.163574 C1606.08834,584.979629 1596.91688,582.387695 1586.54899,582.387695 L1563.10172,582.387695 L1563.10172,723.549805 L1498.50211,723.549805 L1498.50211,389.306641 L1618.84879,389.306641 Z M1604.25407,531.904297 C1621.1617,531.904297 1634.44038,527.677451 1644.09049,519.223633 C1653.74061,510.769815 1658.56559,499.205803 1658.56559,484.53125 C1658.56559,469.218673 1653.78048,457.774289 1644.21012,450.197754 C1634.63976,442.621219 1621.0022,438.833008 1603.29704,438.833008 L1563.10172,438.833008 L1563.10172,531.904297 L1604.25407,531.904297 Z M2033.9388,389.306641 L2033.9388,439.790039 L1882.4886,439.790039 L1882.4886,527.597656 L2027.47884,527.597656 L2027.47884,578.081055 L1882.4886,578.081055 L1882.4886,673.066406 L2037.28841,673.066406 L2037.28841,723.549805 L1817.88899,723.549805 L1817.88899,389.306641 L2033.9388,389.306641 Z M2270.78173,389.306641 L2418.4038,723.549805 L2350.21533,723.549805 L2315.52294,642.202148 L2166.94384,642.202148 L2134.64404,723.549805 L2066.93408,723.549805 L2204.74658,389.306641 L2270.78173,389.306641 Z M2186.56298,593.154297 L2294.46826,593.154297 L2238.00341,460.844727 L2186.56298,593.154297 Z M2699.50943,389.306641 L2699.50943,439.790039 L2580.83756,439.790039 L2580.83756,723.549805 L2516.23795,723.549805 L2516.23795,439.790039 L2397.56607,439.790039 L2397.56607,389.306641 L2699.50943,389.306641 Z M2818.39827,389.306641 L2818.39827,723.549805 L2753.79866,723.549805 L2753.79866,389.306641 L2818.39827,389.306641 Z M2931.0664,389.306641 L3025.57323,603.920898 L3117.68749,389.306641 L3185.39745,389.306641 L3037.77538,727.856445 L3015.28515,727.856445 L2862.87792,389.306641 L2931.0664,389.306641 Z M3444.49136,389.306641 L3444.49136,439.790039 L3293.04117,439.790039 L3293.04117,527.597656 L3438.0314,527.597656 L3438.0314,578.081055 L3293.04117,578.081055 L3293.04117,673.066406 L3447.84097,673.066406 L3447.84097,723.549805 L3228.44156,723.549805 L3228.44156,389.306641 L3444.49136,389.306641 Z" id="CREATIVE" fill="#333333"></path>
        </g>
    </g>
</svg>