<?xml version="1.0" encoding="UTF-8"?>
<svg width="772px" height="772px" viewBox="0 0 772 772" version="1.1" xmlns="http://www.w3.org/2000/svg" xmlns:xlink="http://www.w3.org/1999/xlink">
    <!-- Generator: Sketch 41.2 (35397) - http://www.bohemiancoding.com/sketch -->
    <title>Artboard 5 Copy</title>
    <desc>Created with Sketch.</desc>
    <defs></defs>
    <g id="Page-1" stroke="none" stroke-width="1" fill="none" fill-rule="evenodd">
        <g id="Artboard-5-Copy">
            <g id="Group-8" transform="translate(385.766594, 385.766594) rotate(45.000000) translate(-385.766594, -385.766594) translate(112.766594, 112.766594)">
                <path d="M415.071068,328.071068 L327.071068,328.071068 L327.071068,416.071068 C327.071068,464.672126 366.47001,504.071068 415.071068,504.071068 C463.672126,504.071068 503.071068,464.672126 503.071068,416.071068 C503.071068,367.47001 463.672126,328.071068 415.071068,328.071068 Z M415.071068,285.071068 L285.071068,285.071068 L285.071068,415.071068 C285.071068,486.868085 343.27405,545.071068 415.071068,545.071068 C486.868085,545.071068 545.071068,486.868085 545.071068,415.071068 C545.071068,343.27405 486.868085,285.071068 415.071068,285.071068 Z" id="Combined-Shape-Copy-4" fill="#0B3C56"></path>
                <path d="M130.928932,328.071068 L42.9289322,328.071068 L42.9289322,416.071068 C42.9289322,464.672126 82.3278742,504.071068 130.928932,504.071068 C179.52999,504.071068 218.928932,464.672126 218.928932,416.071068 C218.928932,367.47001 179.52999,328.071068 130.928932,328.071068 Z M130.928932,285.071068 L0.928932188,285.071068 L0.928932188,415.071068 C0.928932188,486.868085 59.1319147,545.071068 130.928932,545.071068 C202.72595,545.071068 260.928932,486.868085 260.928932,415.071068 C260.928932,343.27405 202.72595,285.071068 130.928932,285.071068 Z" id="Combined-Shape-Copy-3" fill="#E36767" transform="translate(130.928932, 415.071068) scale(-1, 1) translate(-130.928932, -415.071068) "></path>
                <path d="M130.928932,504.071068 C179.52999,504.071068 218.928932,464.672126 218.928932,416.071068 L218.928932,328.071068 L130.928932,328.071068 L130.928932,285.071068 L260.928932,285.071068 L260.928932,415.071068 C260.928932,486.868085 202.72595,545.071068 130.928932,545.071068 L130.928932,504.071068 Z" id="Combined-Shape" fill="#0B3C56"></path>
                <path d="M415.071068,43.9289322 L327.071068,43.9289322 L327.071068,131.928932 C327.071068,180.52999 366.47001,219.928932 415.071068,219.928932 C463.672126,219.928932 503.071068,180.52999 503.071068,131.928932 C503.071068,83.3278742 463.672126,43.9289322 415.071068,43.9289322 Z M415.071068,0.928932188 L285.071068,0.928932188 L285.071068,130.928932 C285.071068,202.72595 343.27405,260.928932 415.071068,260.928932 C486.868085,260.928932 545.071068,202.72595 545.071068,130.928932 C545.071068,59.1319147 486.868085,0.928932188 415.071068,0.928932188 Z" id="Combined-Shape-Copy-2" fill="#E36767" transform="translate(415.071068, 130.928932) scale(1, -1) translate(-415.071068, -130.928932) "></path>
                <path d="M130.928932,43.9289322 L42.9289322,43.9289322 L42.9289322,131.928932 C42.9289322,180.52999 82.3278742,219.928932 130.928932,219.928932 C179.52999,219.928932 218.928932,180.52999 218.928932,131.928932 C218.928932,83.3278742 179.52999,43.9289322 130.928932,43.9289322 Z M130.928932,0.928932188 L0.928932188,0.928932188 L0.928932188,130.928932 C0.928932188,202.72595 59.1319147,260.928932 130.928932,260.928932 C202.72595,260.928932 260.928932,202.72595 260.928932,130.928932 C260.928932,59.1319147 202.72595,0.928932188 130.928932,0.928932188 Z" id="Combined-Shape-Copy" fill="#E36767" transform="translate(130.928932, 130.928932) scale(-1, -1) translate(-130.928932, -130.928932) "></path>
            </g>
        </g>
    </g>
</svg>