<?xml version="1.0" encoding="UTF-8"?>
<svg width="1301px" height="1301px" viewBox="0 0 1301 1301" version="1.1" xmlns="http://www.w3.org/2000/svg" xmlns:xlink="http://www.w3.org/1999/xlink">
    <!-- Generator: Sketch 42 (36781) - http://www.bohemiancoding.com/sketch -->
    <title>Group 9</title>
    <desc>Created with Sketch.</desc>
    <defs></defs>
    <g id="Page-1" stroke="none" stroke-width="1" fill="none" fill-rule="evenodd">
        <g id="Group-9">
            <circle id="Oval-2" fill="#19A974" cx="650.5" cy="650.5" r="650.5"></circle>
            <g id="Group-8" transform="translate(650.500000, 650.500000) rotate(45.000000) translate(-650.500000, -650.500000) translate(235.000000, 235.000000)">
                <path d="M632.0597,499.323051 L497.797341,499.323051 L497.797341,633.585459 C497.797341,707.73654 557.908669,767.847868 632.05975,767.847868 C706.210831,767.847868 766.322159,707.73654 766.322159,633.585459 C766.322159,559.434379 706.210831,499.323051 632.05975,499.323051 Z M632.05975,433.717555 C741.60112,433.717555 830.401945,522.518381 830.401945,632.05975 C830.401945,741.60112 741.60112,830.401945 632.05975,830.401945 C522.518381,830.401945 433.717555,741.60112 433.717555,632.05975 L433.717555,433.717555 L632.05975,433.717555 Z" id="Combined-Shape-Copy-4" fill="#FFFFFF"></path>
                <path d="M198.541456,499.323051 L64.2790735,499.323051 L64.2790735,633.585459 C64.2790735,707.73654 124.390401,767.847868 198.541482,767.847868 C272.692563,767.847868 332.803891,707.73654 332.803891,633.585459 C332.803891,559.434379 272.692563,499.323051 198.541482,499.323051 Z M198.541482,433.717555 C308.082852,433.717555 396.883677,522.518381 396.883677,632.05975 C396.883677,741.60112 308.082852,830.401945 198.541482,830.401945 C89.0001129,830.401945 0.199287504,741.60112 0.199287504,632.05975 L0.199287504,433.717555 L198.541482,433.717555 Z" id="Combined-Shape-Copy-3" fill="#333333" transform="translate(198.541482, 632.059750) scale(-1, 1) translate(-198.541482, -632.059750) "></path>
                <path d="M198.541482,499.323051 L332.803891,499.323051 L332.803891,633.585421 C332.803891,707.73654 272.692563,767.847868 198.541482,767.847868 L198.541482,830.401945 C308.082852,830.401945 396.883677,741.60112 396.883677,632.05975 L396.883677,433.717555 L198.541482,433.717555 L198.541482,499.323051 Z" id="Combined-Shape" fill="#FFFFFF"></path>
                <path d="M632.059727,65.8047827 L497.797341,65.8047827 L497.797341,200.067192 C497.797341,274.218272 557.908669,334.3296 632.05975,334.3296 C706.210831,334.3296 766.322159,274.218272 766.322159,200.067192 C766.322159,125.916111 706.210831,65.8047827 632.05975,65.8047827 Z M632.05975,0.199287504 C741.60112,0.199287504 830.401945,89.0001129 830.401945,198.541482 C830.401945,308.082852 741.60112,396.883677 632.05975,396.883677 C522.518381,396.883677 433.717555,308.082852 433.717555,198.541482 L433.717555,0.199287504 L632.05975,0.199287504 Z" id="Combined-Shape-Copy-2" fill="#333333" transform="translate(632.059750, 198.541482) scale(1, -1) translate(-632.059750, -198.541482) "></path>
                <path d="M198.541459,65.8047827 L64.2790735,65.8047827 L64.2790735,200.067192 C64.2790735,274.218272 124.390401,334.3296 198.541482,334.3296 C272.692563,334.3296 332.803891,274.218272 332.803891,200.067192 C332.803891,125.916111 272.692563,65.8047827 198.541482,65.8047827 Z M198.541482,0.199287504 C308.082852,0.199287504 396.883677,89.0001129 396.883677,198.541482 C396.883677,308.082852 308.082852,396.883677 198.541482,396.883677 C89.0001129,396.883677 0.199287504,308.082852 0.199287504,198.541482 L0.199287504,0.199287504 L198.541482,0.199287504 Z" id="Combined-Shape-Copy" fill="#333333" transform="translate(198.541482, 198.541482) scale(-1, -1) translate(-198.541482, -198.541482) "></path>
            </g>
        </g>
    </g>
</svg>