<svg width="3471" height="728" viewBox="0 0 3471 728" xmlns="http://www.w3.org/2000/svg">
    <title>
        Logo - White Copy 2
    </title>
    <g fill="none" fill-rule="evenodd">
        <g fill="#0B3B55">
            <path d="M0 5h514.055v119.88H0zm569.492 0h418.3v119.88h-418.3zm0 599.401h418.3v119.88h-418.3z"/>
            <path d="M513.938 122.483v601.798H373.406V122.483z"/>
        </g>
        <path d="M1259.811 296.309h-40.94V42.855H1125V7.346h228.683v35.509h-93.872v253.454zm109.61 0h-45.49L1450.887 7.346h37.218l125.713 288.963H1567.5l-29.774-71.017H1398.78l-29.36 71.017zm43.833-106.525h109.586l-54.586-135.502-55 135.502zm468.613 61.63c-11.579 15.509-26.604 28.093-45.075 37.752-18.47 9.66-40.663 14.489-66.578 14.489-22.331 0-42.938-3.741-61.823-11.224-18.885-7.482-35.15-17.958-48.797-31.426-13.646-13.47-24.33-29.522-32.048-48.16-7.72-18.64-11.58-39.114-11.58-61.426 0-22.583 3.93-43.194 11.786-61.833 7.858-18.638 18.747-34.555 32.67-47.752 13.922-13.196 30.394-23.468 49.416-30.814 19.023-7.347 39.7-11.02 62.03-11.02 9.925 0 19.987.952 30.188 2.857 10.2 1.905 19.987 4.762 29.36 8.57 9.374 3.81 17.92 8.504 25.64 14.082 7.719 5.578 14.335 12.04 19.849 19.386l-32.256 24.489c-7.168-9.796-17.299-17.89-30.394-24.285-13.095-6.394-27.224-9.591-42.387-9.591-17.093 0-32.462 3.061-46.109 9.183-13.646 6.122-25.294 14.489-34.943 25.1-9.65 10.612-17.093 22.924-22.33 36.937-5.239 14.013-7.858 28.91-7.858 44.691 0 16.326 2.55 31.563 7.65 45.712 5.1 14.149 12.406 26.46 21.918 36.936 9.51 10.476 21.09 18.707 34.736 24.693 13.647 5.986 28.878 8.979 45.695 8.979 16.542 0 31.566-3.265 45.075-9.795 13.509-6.53 24.674-16.054 33.496-28.57l32.67 22.04zm153.574 44.895h-40.94V42.855h-93.871V7.346h228.682v35.509h-93.871v253.454zm174.71 0h-40.939V7.346h40.94V296.31zm301.582-44.896c-11.579 15.51-26.603 28.094-45.074 37.753-18.472 9.66-40.664 14.489-66.579 14.489-22.33 0-42.938-3.741-61.823-11.224-18.884-7.482-35.15-17.958-48.796-31.426-13.647-13.47-24.33-29.522-32.049-48.16-7.72-18.64-11.579-39.114-11.579-61.426 0-22.583 3.929-43.194 11.786-61.833 7.857-18.638 18.746-34.555 32.669-47.752 13.922-13.196 30.394-23.468 49.417-30.814C2358.727 3.673 2379.403 0 2401.735 0c9.924 0 19.986.952 30.187 2.857 10.2 1.905 19.987 4.762 29.36 8.57 9.374 3.81 17.92 8.504 25.64 14.082 7.719 5.578 14.335 12.04 19.849 19.386l-32.255 24.489c-7.168-9.796-17.3-17.89-30.395-24.285-13.095-6.394-27.224-9.591-42.387-9.591-17.092 0-32.462 3.061-46.108 9.183-13.647 6.122-25.295 14.489-34.944 25.1-9.649 10.612-17.092 22.924-22.33 36.937-5.239 14.013-7.858 28.91-7.858 44.691 0 16.326 2.55 31.563 7.65 45.712 5.101 14.149 12.407 26.46 21.918 36.936 9.511 10.476 21.09 18.707 34.736 24.693 13.647 5.986 28.879 8.979 45.696 8.979 16.54 0 31.566-3.265 45.074-9.795 13.51-6.53 24.674-16.054 33.496-28.57l32.67 22.04zm43.48 44.896h-45.488L2636.679 7.346h37.217L2799.61 296.31h-46.316l-29.774-71.017h-138.946l-29.361 71.017zm43.834-106.525h109.586l-54.586-135.502-55 135.502zm279.134 70.608h130.675v35.917h-171.615V7.346h40.94v253.046zm211.314 0h130.676v35.917h-171.616V7.346h40.94v253.046zm253.67 35.917h-41.352v-124.89L3192.227 7.345h50.45l81.053 130.605 81.465-130.605h47.556l-109.585 164.072v124.89zM1314.774 385c18.982 0 37.564 2.153 55.747 6.46 18.184 4.307 37.803 11.644 58.858 22.012v60.771c-20.576-11.803-39.597-20.337-57.063-25.6-17.466-5.264-35.69-7.896-54.67-7.896-23.767 0-45.22 4.905-64.36 14.714-19.142 9.81-34.015 23.647-44.622 41.512-10.608 17.864-15.911 37.723-15.911 59.575 0 22.33 5.264 42.348 15.791 60.054 10.527 17.705 25.361 31.382 44.502 41.032 19.14 9.65 40.674 14.475 64.6 14.475 18.343 0 35.848-2.631 52.517-7.895 16.668-5.264 37.683-14.754 63.044-28.472v60.772c-21.693 11.325-41.63 19.38-59.814 24.165-18.184 4.785-39.398 7.177-63.643 7.177-35.25 0-66.753-7.018-94.507-21.054-27.754-14.037-49.566-34.254-65.437-60.652-15.87-26.398-23.806-55.308-23.806-86.731 0-33.656 8.175-63.882 24.524-90.679 16.35-26.797 38.84-47.452 67.47-61.968 28.632-14.515 60.892-21.772 96.78-21.772zm304.075 4.307c31.422 0 57.023 8.693 76.802 26.079 19.778 17.386 29.668 40.035 29.668 67.949 0 18.981-4.905 35.53-14.715 49.646-9.81 14.116-24.364 25.242-43.664 33.376 10.687 5.743 20.177 13.558 28.471 23.448 8.295 9.89 18.583 26.557 30.865 50.005 20.416 40.514 35.57 68.427 45.459 83.74h-72.017c-4.945-7.337-11.644-19.061-20.098-35.171-18.502-35.57-32.06-59.535-40.674-71.897-8.613-12.362-16.907-21.134-24.882-26.318-7.976-5.184-17.147-7.776-27.515-7.776h-23.447V723.55h-64.6V389.307h120.347zm-14.595 142.597c16.908 0 30.186-4.227 39.836-12.68 9.65-8.454 14.476-20.018 14.476-34.693 0-15.312-4.786-26.757-14.356-34.333-9.57-7.577-23.208-11.365-40.913-11.365h-40.195v93.071h41.152zm429.685-142.597v50.483h-151.45v87.808h144.99v50.483h-144.99v94.985h154.8v50.484h-219.4V389.307h216.05zm236.843 0l147.622 334.243h-68.189l-34.692-81.348h-148.58l-32.299 81.348h-67.71l137.813-334.243h66.035zm-84.219 203.847h107.905l-56.465-132.31-51.44 132.31zm512.946-203.847v50.483h-118.671v283.76h-64.6V439.79h-118.672v-50.483h301.943zm118.89 0V723.55h-64.6V389.307h64.6zm112.667 0l94.507 214.614 92.114-214.614h67.71l-147.622 338.55h-22.49l-152.407-338.55h68.188zm513.425 0v50.483h-151.45v87.808h144.99v50.483h-144.99v94.985h154.8v50.484h-219.4V389.307h216.05z" fill="#333"/>
    </g>
</svg>
