<?xml version="1.0" encoding="UTF-8"?>
<svg width="2328px" height="729px" viewBox="0 0 2328 729" version="1.1" xmlns="http://www.w3.org/2000/svg" xmlns:xlink="http://www.w3.org/1999/xlink">
    <!-- Generator: Sketch 41.2 (35397) - http://www.bohemiancoding.com/sketch -->
    <title>Artboard 4</title>
    <desc>Created with Sketch.</desc>
    <defs></defs>
    <g id="Page-1" stroke="none" stroke-width="1" fill="none" fill-rule="evenodd">
        <g id="Artboard-4" fill="#333333">
            <path d="M134.811051,296.308536 L93.8714989,296.308536 L93.8714989,42.8545404 L0,42.8545404 L0,7.34649263 L228.68255,7.34649263 L228.68255,42.8545404 L134.811051,42.8545404 L134.811051,296.308536 Z M244.420165,296.308536 L198.931773,296.308536 L325.885739,7.34649263 L363.103513,7.34649263 L488.816886,296.308536 L442.501433,296.308536 L412.727213,225.292441 L273.780854,225.292441 L244.420165,296.308536 Z M288.254433,189.784393 L397.840103,189.784393 L343.254033,54.2824178 L288.254433,189.784393 Z M756.867135,251.413303 C745.288214,266.922643 730.26341,279.506787 711.792274,289.166113 C693.321138,298.825438 671.128539,303.655029 645.21381,303.655029 C622.883034,303.655029 602.27562,299.913797 583.390951,292.431221 C564.506282,284.948644 548.240898,274.473195 534.594313,261.004558 C520.947727,247.53592 510.264954,231.482634 502.545673,212.844217 C494.826392,194.2058 490.96681,173.731058 490.96681,151.419376 C490.96681,128.8356 494.895313,108.224813 502.752439,89.5863963 C510.609564,70.9479792 521.4991,55.0307376 535.421374,41.8341942 C549.343649,28.6376507 565.815795,18.3662683 584.838309,11.0197389 C603.860822,3.67320958 624.537157,0 646.867934,0 C656.792723,0 666.855206,0.952313596 677.055684,2.85696936 C687.256163,4.76162512 697.042961,7.6185659 706.416373,11.4278774 C715.789786,15.2371889 724.336004,19.9307345 732.055285,25.508655 C739.774566,31.0865754 746.390993,37.5487034 751.904765,44.8952327 L719.64936,69.3835415 C712.481456,59.588169 702.350052,51.4935035 689.254844,45.099302 C676.159635,38.7051005 662.030807,35.5080477 646.867934,35.5080477 C629.77524,35.5080477 614.405831,38.5690557 600.759246,44.6911635 C587.11266,50.8132713 575.464991,59.1800265 565.81589,69.79168 C556.166789,80.4033335 548.723309,92.7153879 543.485226,106.728212 C538.247142,120.741037 535.62814,135.637942 535.62814,151.419376 C535.62814,167.744997 538.178221,182.982014 543.27846,197.130886 C548.378699,211.279757 555.684338,223.591811 565.195594,234.067418 C574.706851,244.543025 586.285598,252.773735 599.932184,258.759796 C613.57877,264.745857 628.810336,267.738843 645.627341,267.738843 C662.168657,267.738843 677.19346,264.473767 690.702202,257.943519 C704.210943,251.413271 715.376164,241.890135 724.198199,229.373826 L756.867135,251.413303 Z M910.440895,296.308536 L869.501343,296.308536 L869.501343,42.8545404 L775.629844,42.8545404 L775.629844,7.34649263 L1004.31239,7.34649263 L1004.31239,42.8545404 L910.440895,42.8545404 L910.440895,296.308536 Z M1085.15179,296.308536 L1044.21224,296.308536 L1044.21224,7.34649263 L1085.15179,7.34649263 L1085.15179,296.308536 Z M1386.73342,251.413303 C1375.1545,266.922643 1360.12969,279.506787 1341.65856,289.166113 C1323.18742,298.825438 1300.99482,303.655029 1275.08009,303.655029 C1252.74932,303.655029 1232.1419,299.913797 1213.25723,292.431221 C1194.37257,284.948644 1178.10718,274.473195 1164.4606,261.004558 C1150.81401,247.53592 1140.13124,231.482634 1132.41196,212.844217 C1124.69268,194.2058 1120.83309,173.731058 1120.83309,151.419376 C1120.83309,128.8356 1124.7616,108.224813 1132.61872,89.5863963 C1140.47585,70.9479792 1151.36538,55.0307376 1165.28766,41.8341942 C1179.20993,28.6376507 1195.68208,18.3662683 1214.70459,11.0197389 C1233.72711,3.67320958 1254.40344,0 1276.73422,0 C1286.65901,0 1296.72149,0.952313596 1306.92197,2.85696936 C1317.12245,4.76162512 1326.90924,7.6185659 1336.28266,11.4278774 C1345.65607,15.2371889 1354.20229,19.9307345 1361.92157,25.508655 C1369.64085,31.0865754 1376.25728,37.5487034 1381.77105,44.8952327 L1349.51564,69.3835415 C1342.34774,59.588169 1332.21634,51.4935035 1319.12113,45.099302 C1306.02592,38.7051005 1291.89709,35.5080477 1276.73422,35.5080477 C1259.64152,35.5080477 1244.27212,38.5690557 1230.62553,44.6911635 C1216.97894,50.8132713 1205.33128,59.1800265 1195.68217,69.79168 C1186.03307,80.4033335 1178.58959,92.7153879 1173.35151,106.728212 C1168.11343,120.741037 1165.49442,135.637942 1165.49442,151.419376 C1165.49442,167.744997 1168.0445,182.982014 1173.14474,197.130886 C1178.24498,211.279757 1185.55062,223.591811 1195.06188,234.067418 C1204.57313,244.543025 1216.15188,252.773735 1229.79847,258.759796 C1243.44505,264.745857 1258.67662,267.738843 1275.49362,267.738843 C1292.03494,267.738843 1307.05974,264.473767 1320.56849,257.943519 C1334.07723,251.413271 1345.24245,241.890135 1354.06448,229.373826 L1386.73342,251.413303 Z M1430.21298,296.308536 L1384.72459,296.308536 L1511.67856,7.34649263 L1548.89633,7.34649263 L1674.6097,296.308536 L1628.29425,296.308536 L1598.52003,225.292441 L1459.57367,225.292441 L1430.21298,296.308536 Z M1474.04725,189.784393 L1583.63292,189.784393 L1529.04685,54.2824178 L1474.04725,189.784393 Z M1753.18056,260.39235 L1883.85631,260.39235 L1883.85631,296.308536 L1712.24101,296.308536 L1712.24101,7.34649263 L1753.18056,7.34649263 L1753.18056,260.39235 Z M1964.49482,260.39235 L2095.17056,260.39235 L2095.17056,296.308536 L1923.55527,296.308536 L1923.55527,7.34649263 L1964.49482,7.34649263 L1964.49482,260.39235 Z M2218.1657,296.308536 L2176.81261,296.308536 L2176.81261,171.418161 L2067.22694,7.34649263 L2117.67771,7.34649263 L2198.72975,137.950806 L2280.19532,7.34649263 L2327.75137,7.34649263 L2218.1657,171.418161 L2218.1657,296.308536 Z" id="TACTICALLY-Copy"></path>
            <path d="M190.774414,386 C209.755629,386 228.3378,388.153299 246.521484,392.459961 C264.705169,396.766623 284.324113,404.103789 305.378906,414.47168 L305.378906,475.243164 C284.802631,463.43972 265.781826,454.906276 248.315918,449.642578 C230.85001,444.37888 212.626723,441.74707 193.645508,441.74707 C169.879113,441.74707 148.425877,446.651806 129.285156,456.461426 C110.144436,466.271045 95.2707236,480.107984 84.6635742,497.972656 C74.0564248,515.837329 68.7529297,535.695529 68.7529297,557.547852 C68.7529297,579.878692 74.0165489,599.896396 84.5439453,617.601562 C95.0713417,635.306729 109.905178,648.984164 129.045898,658.634277 C148.186619,668.284391 169.719607,673.109375 193.645508,673.109375 C211.988698,673.109375 229.49422,670.477565 246.162598,665.213867 C262.830975,659.950169 283.845576,650.459704 309.207031,636.742188 L309.207031,697.513672 C287.514214,708.838598 267.576263,716.893531 249.392578,721.678711 C231.208893,726.463891 209.994913,728.856445 185.75,728.856445 C150.499173,728.856445 118.997209,721.838286 91.2431641,707.801758 C63.489119,693.765229 41.6769999,673.548146 25.8061523,647.149902 C9.93530476,620.751658 2,591.841628 2,560.418945 C2,526.763178 10.1745602,496.537243 26.5239258,469.740234 C42.8732914,442.943225 65.3633009,422.287507 93.9946289,407.772461 C122.625957,393.257414 154.885563,386 190.774414,386 L190.774414,386 Z M494.848794,390.306641 C526.271477,390.306641 551.871807,398.999588 571.650552,416.385742 C591.429296,433.771897 601.31852,456.42141 601.31852,484.334961 C601.31852,503.316176 596.413784,519.864676 586.604165,533.980957 C576.794545,548.097239 562.239841,559.222616 542.939614,567.357422 C553.626516,573.099638 563.116981,580.915315 571.411294,590.804688 C579.705606,600.69406 589.993589,617.362187 602.275552,640.80957 C622.69232,681.324096 637.845164,709.237228 647.734536,724.549805 L575.717934,724.549805 C570.773248,717.212528 564.074096,705.489013 555.620278,689.378906 C537.117581,653.809067 523.559774,629.843649 514.94645,617.481934 C506.333126,605.120218 498.038938,596.347519 490.063637,591.163574 C482.088337,585.979629 472.916879,583.387695 462.548989,583.387695 L439.101723,583.387695 L439.101723,724.549805 L374.502114,724.549805 L374.502114,390.306641 L494.848794,390.306641 Z M480.254067,532.904297 C497.161704,532.904297 510.44038,528.677451 520.090493,520.223633 C529.740606,511.769815 534.565591,500.205803 534.565591,485.53125 C534.565591,470.218673 529.780482,458.774289 520.210122,451.197754 C510.639762,443.621219 497.002203,439.833008 479.297036,439.833008 L439.101723,439.833008 L439.101723,532.904297 L480.254067,532.904297 Z M909.938798,390.306641 L909.938798,440.790039 L758.488603,440.790039 L758.488603,528.597656 L903.478837,528.597656 L903.478837,579.081055 L758.488603,579.081055 L758.488603,674.066406 L913.288408,674.066406 L913.288408,724.549805 L693.888994,724.549805 L693.888994,390.306641 L909.938798,390.306641 Z M1146.78173,390.306641 L1294.4038,724.549805 L1226.21533,724.549805 L1191.52294,643.202148 L1042.94384,643.202148 L1010.64404,724.549805 L942.934077,724.549805 L1080.74658,390.306641 L1146.78173,390.306641 Z M1062.56298,594.154297 L1170.46826,594.154297 L1114.00341,461.844727 L1062.56298,594.154297 Z M1575.50943,390.306641 L1575.50943,440.790039 L1456.83756,440.790039 L1456.83756,724.549805 L1392.23795,724.549805 L1392.23795,440.790039 L1273.56607,440.790039 L1273.56607,390.306641 L1575.50943,390.306641 Z M1694.39827,390.306641 L1694.39827,724.549805 L1629.79866,724.549805 L1629.79866,390.306641 L1694.39827,390.306641 Z M1807.0664,390.306641 L1901.57323,604.920898 L1993.68749,390.306641 L2061.39745,390.306641 L1913.77538,728.856445 L1891.28515,728.856445 L1738.87792,390.306641 L1807.0664,390.306641 Z M2320.49136,390.306641 L2320.49136,440.790039 L2169.04117,440.790039 L2169.04117,528.597656 L2314.0314,528.597656 L2314.0314,579.081055 L2169.04117,579.081055 L2169.04117,674.066406 L2323.84097,674.066406 L2323.84097,724.549805 L2104.44156,724.549805 L2104.44156,390.306641 L2320.49136,390.306641 Z" id="CREATIVE-Copy"></path>
        </g>
    </g>
</svg>